# xmcd
# 
# Track frame offsets:
#     150
#     42552
#     72104
#     121674
#     162752
# 
# Disc length: 2867
# 
# Revision: 1
# Processed by: cddbd v1.5.1PL0 Copyright (c) Steve Scherf et al.
# Submitted via: BonkEnc v1.0beta3
# 
DISCID=390b3105
DTITLE=McLaughlin and Paco - John McLaughlin Montreux Concerts [CD10 of 17)
DYEAR=1987
DGENRE=Jazz
TTITLE0=One melody and My Foolish Heart
TTITLE1=El Panuelo
TTITLE2=Spain
TTITLE3=Chiquito
TTITLE4=Florianapolis
EXTD=YEAR: 1987
EXTT0=
EXTT1=
EXTT2=
EXTT3=
EXTT4=
PLAYORDER=
